<svg id="svg" version="1.1" xmlns="http://www.w3.org/2000/svg" xmlns:xlink="http://www.w3.org/1999/xlink" width="400" height="368.3453237410072" viewBox="0, 0, 400,368.3453237410072"><g id="svgg"><path id="path0" d="M165.161 0.553 C 165.161 0.971,164.711 1.106,163.318 1.106 L 161.475 1.106 161.475 2.581 L 161.475 4.055 160.000 4.055 L 158.525 4.055 158.525 7.400 C 158.525 10.816,157.838 12.702,157.054 11.435 C 156.276 10.175,155.576 11.393,155.576 14.009 C 155.576 16.625,156.276 17.844,157.054 16.584 C 157.873 15.259,158.525 17.212,158.525 20.987 C 158.525 24.455,158.574 24.700,159.263 24.700 C 159.668 24.700,160.000 24.535,160.000 24.332 C 160.000 24.129,160.332 23.963,160.737 23.963 C 161.352 23.963,161.475 24.209,161.475 25.438 L 161.475 26.912 163.318 26.912 L 165.161 26.912 165.161 28.229 C 165.161 30.787,161.391 30.599,212.732 30.599 C 254.998 30.599,259.229 30.652,259.026 31.182 C 258.903 31.503,258.802 31.835,258.802 31.920 C 258.802 32.004,258.304 32.074,257.696 32.074 L 256.590 32.074 256.590 145.438 C 256.590 258.556,256.591 258.802,257.327 258.802 C 257.819 258.802,258.065 258.556,258.065 258.065 C 258.065 257.659,258.230 257.327,258.433 257.327 C 258.920 257.327,258.859 256.869,259.122 262.488 L 259.355 267.465 260.737 267.580 C 261.839 267.671,262.120 267.845,262.120 268.436 C 262.120 269.454,262.985 270.230,264.121 270.230 C 264.643 270.230,265.069 270.396,265.069 270.599 C 265.069 270.802,264.903 270.968,264.700 270.968 C 264.498 270.968,264.332 271.300,264.332 271.705 C 264.332 272.360,264.578 272.442,266.544 272.442 C 267.773 272.442,268.756 272.606,268.756 272.811 C 268.756 273.014,269.514 273.180,270.441 273.180 C 271.410 273.180,272.350 273.404,272.653 273.706 C 273.367 274.421,273.316 274.654,272.442 274.654 C 271.951 274.654,271.705 274.900,271.705 275.392 C 271.705 276.077,271.951 276.129,275.207 276.129 C 278.464 276.129,278.710 276.077,278.710 275.392 C 278.710 274.986,278.544 274.654,278.341 274.654 C 278.138 274.654,277.972 274.323,277.972 273.917 C 277.972 273.262,278.218 273.180,280.184 273.180 C 281.413 273.180,282.396 273.016,282.396 272.811 C 282.396 272.608,283.060 272.442,283.871 272.442 L 285.346 272.442 285.346 270.968 L 285.346 269.493 286.820 269.493 C 288.221 269.493,288.295 269.436,288.295 268.361 C 288.295 266.921,289.041 266.175,290.481 266.175 L 291.613 266.175 291.613 135.484 C 291.613 5.038,291.612 4.793,290.876 4.793 C 290.470 4.793,290.138 4.959,290.138 5.161 C 290.138 5.364,289.889 5.530,289.585 5.530 C 289.278 5.530,289.032 5.202,289.032 4.793 C 289.032 4.387,288.866 4.055,288.664 4.055 C 288.461 4.055,288.295 3.558,288.295 2.949 C 288.295 2.007,288.154 1.843,287.347 1.843 C 286.375 1.843,285.346 1.099,285.346 0.395 C 285.346 0.116,267.740 0.000,225.253 0.000 C 172.084 0.000,165.161 0.064,165.161 0.553 M8.295 54.562 C 8.170 54.765,7.164 54.931,6.061 54.931 C 4.078 54.931,4.055 54.944,4.055 56.037 C 4.055 56.979,3.915 57.143,3.107 57.143 C 1.795 57.143,1.106 57.959,1.106 59.513 C 1.106 60.437,0.941 60.829,0.553 60.829 C -0.286 60.829,-0.286 130.168,0.553 131.007 C 1.015 131.469,1.106 133.079,1.106 140.803 C 1.106 149.800,1.126 150.046,1.843 150.046 C 2.249 150.046,2.581 149.880,2.581 149.677 C 2.581 149.475,2.912 149.309,3.318 149.309 C 3.932 149.309,4.055 149.555,4.055 150.783 C 4.055 151.594,4.221 152.258,4.424 152.258 C 4.655 152.258,4.793 154.531,4.793 158.341 C 4.793 164.090,4.831 164.424,5.499 164.424 C 5.888 164.424,6.280 164.217,6.370 163.963 C 6.868 162.569,7.209 164.836,7.373 170.625 C 7.538 176.446,7.626 177.148,8.203 177.258 C 8.610 177.336,8.848 177.153,8.848 176.762 C 8.848 176.348,9.042 176.217,9.431 176.366 C 9.752 176.489,10.084 176.590,10.168 176.590 C 10.253 176.590,10.323 179.078,10.323 182.120 L 10.323 187.650 11.639 187.650 C 13.770 187.650,14.009 188.169,14.009 192.785 C 14.009 196.561,14.062 196.866,14.716 196.866 C 15.104 196.866,15.491 196.660,15.575 196.409 C 16.183 194.584,16.959 197.407,16.959 201.448 C 16.959 205.469,17.001 205.714,17.696 205.714 C 18.101 205.714,18.433 205.548,18.433 205.346 C 18.433 205.143,18.765 204.977,19.171 204.977 C 19.744 204.977,19.908 205.223,19.908 206.083 C 19.908 206.691,20.074 207.189,20.276 207.189 C 20.479 207.189,20.645 207.438,20.645 207.742 C 20.645 208.046,20.479 208.295,20.276 208.295 C 20.074 208.295,19.908 208.793,19.908 209.401 C 19.908 210.009,20.074 210.507,20.276 210.507 C 20.479 210.507,20.645 211.005,20.645 211.613 C 20.645 212.486,20.806 212.719,21.409 212.719 C 22.861 212.719,23.226 213.564,23.226 216.932 C 23.226 219.801,23.291 220.092,23.932 220.092 C 24.321 220.092,24.708 219.886,24.792 219.635 C 25.289 218.141,26.175 220.542,26.175 223.384 C 26.175 226.114,26.236 226.359,26.912 226.359 C 27.318 226.359,27.650 226.194,27.650 225.991 C 27.650 225.788,27.982 225.622,28.387 225.622 C 29.002 225.622,29.124 225.868,29.124 227.097 C 29.124 227.908,29.290 228.571,29.493 228.571 C 29.698 228.571,29.862 229.555,29.862 230.783 C 29.862 232.750,29.944 232.995,30.599 232.995 C 31.005 232.995,31.336 232.829,31.336 232.627 C 31.336 232.424,31.502 232.258,31.705 232.258 C 31.908 232.258,32.074 232.590,32.074 232.995 C 32.074 233.401,32.240 233.733,32.442 233.733 C 32.655 233.733,32.811 234.900,32.811 236.498 C 32.811 239.017,32.877 239.263,33.548 239.263 C 33.954 239.263,34.286 239.097,34.286 238.894 C 34.286 238.691,34.618 238.525,35.023 238.525 C 35.637 238.525,35.760 238.771,35.760 240.000 C 35.760 240.811,35.926 241.475,36.129 241.475 C 36.332 241.475,36.498 241.972,36.498 242.581 C 36.498 243.454,36.659 243.687,37.261 243.687 C 38.619 243.687,39.078 244.566,39.078 247.163 C 39.078 249.519,39.104 249.585,40.026 249.585 C 41.468 249.585,42.028 250.402,42.028 252.508 C 42.028 254.132,42.125 254.378,42.765 254.378 C 43.171 254.378,43.502 254.212,43.502 254.009 C 43.502 253.806,43.834 253.641,44.240 253.641 C 44.879 253.641,44.977 253.886,44.977 255.484 C 44.977 256.498,45.143 257.327,45.346 257.327 C 45.548 257.327,45.714 257.825,45.714 258.433 C 45.714 259.375,45.855 259.539,46.662 259.539 C 48.061 259.539,48.664 260.364,48.664 262.278 C 48.664 263.940,49.790 264.823,50.229 263.506 C 50.503 262.685,51.613 264.194,51.613 265.387 C 51.613 267.287,52.253 268.499,53.135 268.268 C 53.690 268.123,53.959 268.267,54.093 268.780 C 54.196 269.172,54.426 269.493,54.605 269.493 C 54.784 269.493,54.931 270.157,54.931 270.968 C 54.931 272.440,56.093 273.195,56.497 271.985 C 56.848 270.931,57.880 272.766,57.880 274.444 L 57.880 276.129 59.355 276.129 C 60.800 276.129,60.829 276.155,60.829 277.446 C 60.829 278.999,61.519 279.816,62.831 279.816 C 63.638 279.816,63.779 279.980,63.779 280.922 C 63.779 281.530,63.945 282.028,64.147 282.028 C 64.350 282.028,64.516 282.359,64.516 282.765 C 64.516 283.171,64.682 283.502,64.885 283.502 C 65.088 283.502,65.253 283.751,65.253 284.055 C 65.253 284.369,65.584 284.608,66.017 284.608 C 67.056 284.608,67.834 285.465,67.834 286.610 C 67.834 287.312,68.025 287.558,68.571 287.558 C 68.977 287.558,69.309 287.724,69.309 287.926 C 69.309 288.129,69.641 288.295,70.046 288.295 C 70.592 288.295,70.783 288.541,70.783 289.243 C 70.783 290.452,71.575 291.244,72.785 291.244 C 73.487 291.244,73.733 291.435,73.733 291.982 C 73.733 292.387,73.899 292.719,74.101 292.719 C 74.304 292.719,74.470 293.051,74.470 293.456 C 74.470 293.948,74.716 294.194,75.207 294.194 C 75.613 294.194,75.945 294.359,75.945 294.562 C 75.945 294.765,76.276 294.931,76.682 294.931 C 77.296 294.931,77.419 295.177,77.419 296.406 L 77.419 297.880 78.894 297.880 C 80.334 297.880,80.369 297.911,80.369 299.171 C 80.369 300.225,80.507 300.461,81.123 300.461 C 82.174 300.461,83.687 302.082,83.687 303.209 C 83.687 304.039,83.838 304.147,85.003 304.147 C 86.557 304.147,87.373 304.837,87.373 306.149 C 87.373 306.956,87.537 307.097,88.479 307.097 C 89.088 307.097,89.585 307.263,89.585 307.465 C 89.585 307.668,89.846 307.834,90.165 307.834 C 91.035 307.834,91.797 308.769,91.797 309.835 C 91.797 310.727,91.906 310.783,93.641 310.783 L 95.484 310.783 95.484 312.258 L 95.484 313.733 97.143 313.733 L 98.802 313.733 98.802 315.392 C 98.802 316.805,98.911 317.051,99.539 317.051 C 99.945 317.051,100.276 316.885,100.276 316.682 C 100.276 316.134,101.358 316.236,101.962 316.840 C 102.251 317.130,102.488 317.959,102.488 318.683 C 102.488 319.974,102.518 320.000,103.963 320.000 C 104.774 320.000,105.438 320.166,105.438 320.369 C 105.438 320.571,105.770 320.737,106.175 320.737 C 106.581 320.737,106.912 320.903,106.912 321.106 C 106.912 321.309,106.747 321.475,106.544 321.475 C 106.341 321.475,106.175 321.806,106.175 322.212 C 106.175 322.785,106.421 322.949,107.281 322.949 C 107.889 322.949,108.387 323.115,108.387 323.318 C 108.387 323.521,108.719 323.687,109.124 323.687 C 109.530 323.687,109.862 323.521,109.862 323.318 C 109.862 322.706,111.240 322.904,111.489 323.552 C 111.616 323.883,111.615 324.713,111.487 325.395 L 111.254 326.636 113.323 326.636 C 114.461 326.636,115.392 326.802,115.392 327.005 C 115.392 327.207,115.724 327.373,116.129 327.373 C 116.535 327.373,116.866 327.539,116.866 327.742 C 116.866 327.945,116.700 328.111,116.498 328.111 C 116.295 328.111,116.129 328.442,116.129 328.848 C 116.129 329.497,116.375 329.585,118.183 329.585 C 120.397 329.585,121.290 330.107,121.290 331.402 C 121.290 332.005,121.523 332.166,122.396 332.166 C 123.005 332.166,123.502 332.332,123.502 332.535 C 123.502 332.737,124.098 332.903,124.825 332.903 L 126.148 332.903 125.899 334.378 L 125.649 335.853 127.920 335.853 C 130.446 335.853,131.244 336.333,131.244 337.854 C 131.244 338.789,131.283 338.802,134.036 338.802 C 135.963 338.802,136.990 338.965,137.354 339.329 C 137.958 339.933,138.059 341.014,137.512 341.014 C 137.309 341.014,137.143 341.346,137.143 341.751 C 137.143 342.428,137.389 342.488,140.118 342.488 C 143.177 342.488,144.989 343.215,143.785 343.959 C 142.498 344.755,143.750 345.346,147.058 345.504 C 150.150 345.652,151.607 346.048,150.507 346.441 C 149.503 346.799,150.002 348.018,151.152 348.018 C 151.760 348.018,152.258 348.184,152.258 348.387 C 152.258 348.590,152.590 348.756,152.995 348.756 C 153.401 348.756,153.733 348.590,153.733 348.387 C 153.733 348.184,154.065 348.018,154.470 348.018 C 154.876 348.018,155.207 348.184,155.207 348.387 C 155.207 348.590,155.622 348.756,156.129 348.756 C 156.805 348.756,157.051 348.952,157.051 349.493 C 157.051 349.899,156.885 350.230,156.682 350.230 C 156.479 350.230,156.313 350.562,156.313 350.968 C 156.313 351.667,156.559 351.705,161.106 351.705 L 165.899 351.705 165.899 353.180 L 165.899 354.654 169.770 354.654 C 172.104 354.654,173.641 354.801,173.641 355.023 C 173.641 355.226,173.972 355.392,174.378 355.392 C 174.783 355.392,175.115 355.558,175.115 355.760 C 175.115 355.963,174.949 356.129,174.747 356.129 C 174.544 356.129,174.378 356.627,174.378 357.235 L 174.378 358.341 179.171 358.341 C 183.717 358.341,183.963 358.379,183.963 359.078 C 183.963 359.484,183.797 359.816,183.594 359.816 C 183.392 359.816,183.226 360.065,183.226 360.369 C 183.226 360.839,184.171 360.922,189.519 360.922 C 194.906 360.922,195.902 361.010,196.429 361.537 C 196.876 361.985,196.919 362.194,196.587 362.305 C 196.335 362.389,196.129 362.776,196.129 363.164 C 196.129 363.828,196.452 363.871,201.475 363.871 C 204.793 363.871,206.820 364.011,206.820 364.240 C 206.820 364.442,207.484 364.608,208.295 364.608 C 209.524 364.608,209.770 364.731,209.770 365.346 C 209.770 365.751,209.604 366.083,209.401 366.083 C 209.198 366.083,209.032 366.415,209.032 366.820 C 209.032 367.540,209.278 367.558,219.355 367.558 C 228.285 367.558,229.677 367.632,229.677 368.111 C 229.677 368.598,233.180 368.664,258.986 368.664 C 279.582 368.664,288.295 368.546,288.295 368.269 C 288.295 367.520,289.351 366.820,290.481 366.820 L 291.613 366.820 291.613 363.910 C 291.613 360.800,291.765 360.553,293.671 360.553 L 294.562 360.553 294.562 354.654 L 294.562 348.756 293.088 348.756 L 291.613 348.756 291.613 346.359 C 291.613 344.209,291.537 343.963,290.876 343.963 C 290.470 343.963,290.138 344.129,290.138 344.332 C 290.138 344.535,289.889 344.700,289.585 344.700 C 289.186 344.700,289.032 344.291,289.032 343.226 L 289.032 341.751 287.347 341.751 C 285.500 341.751,284.608 341.151,284.608 339.908 C 284.608 338.024,285.084 338.065,262.883 338.065 C 242.458 338.065,242.212 338.056,242.212 337.327 C 242.212 336.922,242.378 336.590,242.581 336.590 C 242.783 336.590,242.949 336.258,242.949 335.853 C 242.949 335.131,242.704 335.115,231.126 335.115 C 220.574 335.115,219.236 335.049,218.687 334.500 C 218.239 334.052,218.196 333.843,218.529 333.732 C 218.780 333.648,218.986 333.261,218.986 332.873 C 218.986 332.205,218.652 332.166,212.903 332.166 C 209.094 332.166,206.820 332.028,206.820 331.797 C 206.820 331.594,206.488 331.429,206.083 331.429 C 205.673 331.429,205.346 331.183,205.346 330.876 C 205.346 330.571,205.512 330.323,205.714 330.323 C 205.917 330.323,206.083 329.991,206.083 329.585 C 206.083 328.877,205.837 328.848,199.789 328.848 C 194.402 328.848,193.407 328.759,192.880 328.232 C 192.433 327.785,192.389 327.575,192.722 327.464 C 192.974 327.380,193.180 326.994,193.180 326.605 C 193.180 325.951,192.875 325.899,189.098 325.899 C 184.651 325.899,183.963 325.631,183.963 323.897 C 183.963 322.958,183.936 322.949,181.014 322.949 C 179.293 322.949,178.065 322.796,178.065 322.581 C 178.065 322.378,177.401 322.212,176.590 322.212 C 175.361 322.212,175.115 322.089,175.115 321.475 C 175.115 321.069,175.281 320.737,175.484 320.737 C 175.687 320.737,175.853 320.406,175.853 320.000 C 175.853 319.311,175.607 319.263,172.140 319.263 C 168.616 319.263,165.960 318.443,167.653 317.879 C 169.500 317.264,167.988 316.313,165.161 316.313 C 163.441 316.313,162.212 316.160,162.212 315.945 C 162.212 315.742,161.880 315.576,161.475 315.576 C 161.069 315.576,160.737 315.410,160.737 315.207 C 160.737 315.005,160.903 314.839,161.106 314.839 C 161.309 314.839,161.475 314.590,161.475 314.286 C 161.475 313.978,161.147 313.733,160.737 313.733 C 160.332 313.733,160.000 313.567,160.000 313.364 C 160.000 313.161,159.502 312.995,158.894 312.995 C 158.286 312.995,157.788 313.161,157.788 313.364 C 157.788 313.567,157.456 313.733,157.051 313.733 C 156.645 313.733,156.313 313.567,156.313 313.364 C 156.313 313.161,156.136 312.995,155.918 312.995 C 155.243 312.995,154.223 311.787,154.750 311.612 C 156.597 310.996,155.084 310.046,152.258 310.046 C 150.538 310.046,149.309 309.892,149.309 309.677 C 149.309 309.475,148.977 309.309,148.571 309.309 C 148.166 309.309,147.834 309.143,147.834 308.940 C 147.834 308.737,148.000 308.571,148.203 308.571 C 148.406 308.571,148.571 308.240,148.571 307.834 C 148.571 307.172,148.326 307.097,146.149 307.097 C 143.463 307.097,142.673 306.642,142.673 305.095 C 142.673 304.393,142.482 304.147,141.935 304.147 C 141.530 304.147,141.198 303.982,141.198 303.779 C 141.198 303.576,140.452 303.410,139.539 303.410 L 137.880 303.410 137.880 301.935 L 137.880 300.461 135.668 300.461 L 133.456 300.461 133.456 299.171 C 133.456 297.911,133.421 297.880,131.982 297.880 C 131.171 297.880,130.507 297.714,130.507 297.512 C 130.507 297.309,130.009 297.143,129.401 297.143 C 128.356 297.143,128.295 297.061,128.295 295.668 C 128.295 294.156,126.478 293.368,125.958 294.654 C 125.810 295.023,125.767 295.023,125.743 294.654 C 125.727 294.401,125.382 294.194,124.977 294.194 C 124.363 294.194,124.240 293.948,124.240 292.719 C 124.240 291.274,124.213 291.244,122.923 291.244 C 121.369 291.244,120.553 290.555,120.553 289.243 C 120.553 288.435,120.389 288.295,119.447 288.295 C 118.839 288.295,118.341 288.129,118.341 287.926 C 118.341 287.724,117.843 287.558,117.235 287.558 C 116.293 287.558,116.129 287.417,116.129 286.610 C 116.129 285.322,115.320 284.609,113.851 284.603 C 112.471 284.596,111.212 283.940,111.982 283.628 C 113.252 283.112,112.440 282.028,110.783 282.028 L 109.124 282.028 109.124 280.553 C 109.124 279.108,109.098 279.078,107.808 279.078 C 106.254 279.078,105.438 278.389,105.438 277.077 C 105.438 276.305,105.262 276.129,104.490 276.129 C 103.178 276.129,102.488 275.313,102.488 273.759 C 102.488 272.495,102.436 272.442,101.172 272.442 C 100.448 272.442,99.618 272.205,99.329 271.916 C 98.724 271.312,98.623 270.230,99.171 270.230 C 99.641 270.230,99.653 269.238,99.186 268.949 C 98.991 268.829,98.515 268.928,98.128 269.170 C 96.950 269.906,96.221 269.329,96.221 267.661 L 96.221 266.175 94.747 266.175 L 93.272 266.175 93.272 264.332 C 93.272 262.734,93.174 262.488,92.535 262.488 C 92.129 262.488,91.797 262.654,91.797 262.857 C 91.797 263.060,91.465 263.226,91.060 263.226 C 90.421 263.226,90.323 262.980,90.323 261.382 L 90.323 259.539 88.848 259.539 L 87.373 259.539 87.373 258.065 C 87.373 257.253,87.207 256.590,87.005 256.590 C 86.802 256.590,86.636 256.092,86.636 255.484 C 86.636 254.542,86.496 254.378,85.688 254.378 C 84.716 254.378,83.687 253.633,83.687 252.930 C 83.687 252.712,83.521 252.535,83.318 252.535 C 83.115 252.535,82.949 252.203,82.949 251.797 C 82.949 251.297,82.704 251.060,82.186 251.060 C 80.968 251.060,80.369 250.156,80.369 248.321 C 80.369 246.660,79.242 245.776,78.803 247.093 C 78.452 248.147,77.419 246.313,77.419 244.635 C 77.419 243.008,77.381 242.949,76.313 242.949 C 75.453 242.949,75.207 242.785,75.207 242.212 C 75.207 241.806,75.041 241.475,74.839 241.475 C 74.636 241.475,74.470 240.562,74.470 239.447 C 74.470 237.665,74.381 237.419,73.733 237.419 C 73.327 237.419,72.995 237.585,72.995 237.788 C 72.995 237.991,72.664 238.157,72.258 238.157 C 71.619 238.157,71.521 237.911,71.521 236.313 C 71.521 235.300,71.355 234.470,71.152 234.470 C 70.949 234.470,70.783 233.972,70.783 233.364 C 70.783 232.422,70.643 232.258,69.835 232.258 C 68.355 232.258,67.834 231.449,67.834 229.151 C 67.834 227.199,67.087 226.203,66.637 227.554 C 66.337 228.454,65.253 226.817,65.253 225.464 C 65.253 224.740,65.088 224.147,64.885 224.147 C 64.682 224.147,64.516 223.733,64.516 223.226 C 64.516 222.482,64.334 222.304,63.568 222.304 C 61.968 222.304,61.567 221.534,61.567 218.460 C 61.567 215.781,60.598 214.336,60.001 216.126 C 59.486 217.672,58.618 215.204,58.618 212.192 C 58.618 209.324,58.552 209.032,57.911 209.032 C 57.522 209.032,57.136 209.238,57.052 209.490 C 56.726 210.468,55.668 208.730,55.668 207.215 C 55.668 206.390,55.502 205.714,55.300 205.714 C 55.097 205.714,54.931 205.051,54.931 204.240 C 54.931 203.011,54.808 202.765,54.194 202.765 C 53.788 202.765,53.456 202.931,53.456 203.134 C 53.456 203.336,53.290 203.502,53.088 203.502 C 52.885 203.502,52.719 203.171,52.719 202.765 C 52.719 202.359,52.553 202.028,52.350 202.028 C 52.129 202.028,51.982 200.553,51.982 198.341 C 51.982 194.885,51.391 193.292,50.785 195.112 C 50.190 196.895,49.401 194.125,49.401 190.257 C 49.401 186.421,49.357 186.175,48.664 186.175 C 48.258 186.175,47.926 186.341,47.926 186.544 C 47.926 186.747,47.594 186.912,47.189 186.912 C 46.575 186.912,46.452 186.667,46.452 185.438 C 46.452 184.627,46.286 183.963,46.083 183.963 C 45.868 183.963,45.714 182.734,45.714 181.014 C 45.714 178.092,45.706 178.065,44.766 178.065 C 42.960 178.065,42.765 177.457,42.765 171.824 C 42.765 166.957,42.721 166.636,42.058 166.636 C 41.670 166.636,41.283 166.842,41.199 167.093 C 41.088 167.426,40.879 167.383,40.431 166.935 C 39.911 166.415,39.816 165.462,39.816 160.764 L 39.816 155.207 38.391 155.207 C 36.600 155.207,36.498 154.669,36.498 145.202 C 36.498 138.959,36.461 138.618,35.791 138.618 C 35.402 138.618,35.016 138.823,34.932 139.075 C 34.821 139.408,34.612 139.365,34.164 138.917 C 33.615 138.368,33.548 137.042,33.548 126.662 C 33.548 115.269,33.533 115.023,32.811 115.023 C 32.401 115.023,32.074 115.269,32.074 115.576 C 32.074 115.883,31.746 116.129,31.336 116.129 C 30.606 116.129,30.599 115.883,30.599 89.743 C 30.599 61.369,30.662 62.304,28.756 62.304 C 27.513 62.304,26.912 61.412,26.912 59.566 L 26.912 57.880 25.596 57.880 C 24.243 57.880,22.606 56.796,23.506 56.497 C 25.141 55.951,23.878 54.931,21.567 54.931 C 20.215 54.931,19.171 54.770,19.171 54.562 C 19.171 54.333,17.150 54.194,13.847 54.194 C 10.695 54.194,8.430 54.344,8.295 54.562 " stroke="none" fill="#FFFFFF" fill-rule="evenodd"></path><path id="path1" d="M288.664 0.737 C 288.664 1.559,289.386 1.711,290.065 1.032 C 290.752 0.345,290.592 0.000,289.585 0.000 C 288.909 0.000,288.664 0.197,288.664 0.737 M291.727 3.477 C 291.247 4.024,291.459 4.424,292.227 4.424 C 292.498 4.424,292.719 4.092,292.719 3.687 C 292.719 2.837,292.356 2.761,291.727 3.477 M11.613 52.350 C 11.738 52.553,12.485 52.719,13.272 52.719 C 14.059 52.719,14.806 52.553,14.931 52.350 C 15.071 52.123,14.436 51.982,13.272 51.982 C 12.108 51.982,11.472 52.123,11.613 52.350 M102.857 271.521 C 102.857 271.825,103.023 272.074,103.226 272.074 C 103.429 272.074,103.594 271.825,103.594 271.521 C 103.594 271.217,103.429 270.968,103.226 270.968 C 103.023 270.968,102.857 271.217,102.857 271.521 M53.272 273.180 C 52.963 273.679,53.380 274.286,54.031 274.286 C 54.323 274.286,54.562 273.954,54.562 273.548 C 54.562 272.785,53.673 272.531,53.272 273.180 M105.806 274.654 C 105.806 274.857,106.148 275.023,106.566 275.023 C 106.983 275.023,107.222 274.857,107.097 274.654 C 106.971 274.452,106.630 274.286,106.338 274.286 C 106.046 274.286,105.806 274.452,105.806 274.654 M125.051 289.843 C 124.449 290.445,124.495 290.876,125.161 290.876 C 125.469 290.876,125.714 290.548,125.714 290.138 C 125.714 289.279,125.646 289.248,125.051 289.843 M69.751 292.055 C 69.149 292.657,69.195 293.088,69.862 293.088 C 70.169 293.088,70.415 292.760,70.415 292.350 C 70.415 291.491,70.346 291.460,69.751 292.055 M72.258 295.853 C 72.510 296.157,72.863 296.406,73.041 296.406 C 73.218 296.406,73.364 296.157,73.364 295.853 C 73.364 295.535,73.031 295.300,72.582 295.300 C 71.928 295.300,71.875 295.391,72.258 295.853 M134.562 296.590 C 134.562 296.894,134.728 297.143,134.931 297.143 C 135.134 297.143,135.300 296.894,135.300 296.590 C 135.300 296.286,135.134 296.037,134.931 296.037 C 134.728 296.037,134.562 296.286,134.562 296.590 M75.576 298.802 C 75.576 299.109,75.904 299.355,76.313 299.355 C 76.723 299.355,77.051 299.109,77.051 298.802 C 77.051 298.495,76.723 298.249,76.313 298.249 C 75.904 298.249,75.576 298.495,75.576 298.802 M78.986 301.406 C 78.345 302.099,78.408 302.304,79.263 302.304 C 79.668 302.304,80.000 302.065,80.000 301.773 C 80.000 301.004,79.519 300.829,78.986 301.406 M143.975 302.781 C 143.817 303.144,143.791 303.545,143.918 303.672 C 144.292 304.046,144.594 303.520,144.421 302.794 C 144.269 302.150,144.249 302.149,143.975 302.781 M82.028 304.885 C 81.629 305.530,82.220 306.074,82.798 305.595 C 83.084 305.357,83.318 305.018,83.318 304.840 C 83.318 304.395,82.308 304.431,82.028 304.885 M85.604 307.908 C 85.002 308.510,85.048 308.940,85.714 308.940 C 86.022 308.940,86.267 308.612,86.267 308.203 C 86.267 307.343,86.199 307.313,85.604 307.908 M100.772 320.938 C 100.652 321.250,100.654 321.606,100.775 321.727 C 101.038 321.990,102.120 321.157,102.120 320.692 C 102.120 320.136,101.002 320.339,100.772 320.938 " stroke="none" fill="#FFFFFF" fill-rule="evenodd"></path><path id="path2" d="M288.664 0.737 C 288.664 1.559,289.386 1.711,290.065 1.032 C 290.752 0.345,290.592 0.000,289.585 0.000 C 288.909 0.000,288.664 0.197,288.664 0.737 M291.727 3.477 C 291.247 4.024,291.459 4.424,292.227 4.424 C 292.498 4.424,292.719 4.092,292.719 3.687 C 292.719 2.837,292.356 2.761,291.727 3.477 M11.613 52.350 C 11.738 52.553,12.485 52.719,13.272 52.719 C 14.059 52.719,14.806 52.553,14.931 52.350 C 15.071 52.123,14.436 51.982,13.272 51.982 C 12.108 51.982,11.472 52.123,11.613 52.350 M102.857 271.521 C 102.857 271.825,103.023 272.074,103.226 272.074 C 103.429 272.074,103.594 271.825,103.594 271.521 C 103.594 271.217,103.429 270.968,103.226 270.968 C 103.023 270.968,102.857 271.217,102.857 271.521 M53.272 273.180 C 52.963 273.679,53.380 274.286,54.031 274.286 C 54.323 274.286,54.562 273.954,54.562 273.548 C 54.562 272.785,53.673 272.531,53.272 273.180 M105.806 274.654 C 105.806 274.857,106.148 275.023,106.566 275.023 C 106.983 275.023,107.222 274.857,107.097 274.654 C 106.971 274.452,106.630 274.286,106.338 274.286 C 106.046 274.286,105.806 274.452,105.806 274.654 M125.051 289.843 C 124.449 290.445,124.495 290.876,125.161 290.876 C 125.469 290.876,125.714 290.548,125.714 290.138 C 125.714 289.279,125.646 289.248,125.051 289.843 M69.751 292.055 C 69.149 292.657,69.195 293.088,69.862 293.088 C 70.169 293.088,70.415 292.760,70.415 292.350 C 70.415 291.491,70.346 291.460,69.751 292.055 M72.258 295.853 C 72.510 296.157,72.863 296.406,73.041 296.406 C 73.218 296.406,73.364 296.157,73.364 295.853 C 73.364 295.535,73.031 295.300,72.582 295.300 C 71.928 295.300,71.875 295.391,72.258 295.853 M134.562 296.590 C 134.562 296.894,134.728 297.143,134.931 297.143 C 135.134 297.143,135.300 296.894,135.300 296.590 C 135.300 296.286,135.134 296.037,134.931 296.037 C 134.728 296.037,134.562 296.286,134.562 296.590 M75.576 298.802 C 75.576 299.109,75.904 299.355,76.313 299.355 C 76.723 299.355,77.051 299.109,77.051 298.802 C 77.051 298.495,76.723 298.249,76.313 298.249 C 75.904 298.249,75.576 298.495,75.576 298.802 M78.986 301.406 C 78.345 302.099,78.408 302.304,79.263 302.304 C 79.668 302.304,80.000 302.065,80.000 301.773 C 80.000 301.004,79.519 300.829,78.986 301.406 M143.975 302.781 C 143.817 303.144,143.791 303.545,143.918 303.672 C 144.292 304.046,144.594 303.520,144.421 302.794 C 144.269 302.150,144.249 302.149,143.975 302.781 M82.028 304.885 C 81.629 305.530,82.220 306.074,82.798 305.595 C 83.084 305.357,83.318 305.018,83.318 304.840 C 83.318 304.395,82.308 304.431,82.028 304.885 M85.604 307.908 C 85.002 308.510,85.048 308.940,85.714 308.940 C 86.022 308.940,86.267 308.612,86.267 308.203 C 86.267 307.343,86.199 307.313,85.604 307.908 M100.772 320.938 C 100.652 321.250,100.654 321.606,100.775 321.727 C 101.038 321.990,102.120 321.157,102.120 320.692 C 102.120 320.136,101.002 320.339,100.772 320.938 " stroke="none" fill="#FFFFFF" fill-rule="evenodd"></path><path id="path3" d="M288.664 0.737 C 288.664 1.559,289.386 1.711,290.065 1.032 C 290.752 0.345,290.592 0.000,289.585 0.000 C 288.909 0.000,288.664 0.197,288.664 0.737 M291.727 3.477 C 291.247 4.024,291.459 4.424,292.227 4.424 C 292.498 4.424,292.719 4.092,292.719 3.687 C 292.719 2.837,292.356 2.761,291.727 3.477 M11.613 52.350 C 11.738 52.553,12.485 52.719,13.272 52.719 C 14.059 52.719,14.806 52.553,14.931 52.350 C 15.071 52.123,14.436 51.982,13.272 51.982 C 12.108 51.982,11.472 52.123,11.613 52.350 M102.857 271.521 C 102.857 271.825,103.023 272.074,103.226 272.074 C 103.429 272.074,103.594 271.825,103.594 271.521 C 103.594 271.217,103.429 270.968,103.226 270.968 C 103.023 270.968,102.857 271.217,102.857 271.521 M53.272 273.180 C 52.963 273.679,53.380 274.286,54.031 274.286 C 54.323 274.286,54.562 273.954,54.562 273.548 C 54.562 272.785,53.673 272.531,53.272 273.180 M105.806 274.654 C 105.806 274.857,106.148 275.023,106.566 275.023 C 106.983 275.023,107.222 274.857,107.097 274.654 C 106.971 274.452,106.630 274.286,106.338 274.286 C 106.046 274.286,105.806 274.452,105.806 274.654 M125.051 289.843 C 124.449 290.445,124.495 290.876,125.161 290.876 C 125.469 290.876,125.714 290.548,125.714 290.138 C 125.714 289.279,125.646 289.248,125.051 289.843 M69.751 292.055 C 69.149 292.657,69.195 293.088,69.862 293.088 C 70.169 293.088,70.415 292.760,70.415 292.350 C 70.415 291.491,70.346 291.460,69.751 292.055 M72.258 295.853 C 72.510 296.157,72.863 296.406,73.041 296.406 C 73.218 296.406,73.364 296.157,73.364 295.853 C 73.364 295.535,73.031 295.300,72.582 295.300 C 71.928 295.300,71.875 295.391,72.258 295.853 M134.562 296.590 C 134.562 296.894,134.728 297.143,134.931 297.143 C 135.134 297.143,135.300 296.894,135.300 296.590 C 135.300 296.286,135.134 296.037,134.931 296.037 C 134.728 296.037,134.562 296.286,134.562 296.590 M75.576 298.802 C 75.576 299.109,75.904 299.355,76.313 299.355 C 76.723 299.355,77.051 299.109,77.051 298.802 C 77.051 298.495,76.723 298.249,76.313 298.249 C 75.904 298.249,75.576 298.495,75.576 298.802 M78.986 301.406 C 78.345 302.099,78.408 302.304,79.263 302.304 C 79.668 302.304,80.000 302.065,80.000 301.773 C 80.000 301.004,79.519 300.829,78.986 301.406 M143.975 302.781 C 143.817 303.144,143.791 303.545,143.918 303.672 C 144.292 304.046,144.594 303.520,144.421 302.794 C 144.269 302.150,144.249 302.149,143.975 302.781 M82.028 304.885 C 81.629 305.530,82.220 306.074,82.798 305.595 C 83.084 305.357,83.318 305.018,83.318 304.840 C 83.318 304.395,82.308 304.431,82.028 304.885 M85.604 307.908 C 85.002 308.510,85.048 308.940,85.714 308.940 C 86.022 308.940,86.267 308.612,86.267 308.203 C 86.267 307.343,86.199 307.313,85.604 307.908 M100.772 320.938 C 100.652 321.250,100.654 321.606,100.775 321.727 C 101.038 321.990,102.120 321.157,102.120 320.692 C 102.120 320.136,101.002 320.339,100.772 320.938 " stroke="none" fill="#FFFFFF" fill-rule="evenodd"></path><path id="path4" d="M288.664 0.737 C 288.664 1.559,289.386 1.711,290.065 1.032 C 290.752 0.345,290.592 0.000,289.585 0.000 C 288.909 0.000,288.664 0.197,288.664 0.737 M291.727 3.477 C 291.247 4.024,291.459 4.424,292.227 4.424 C 292.498 4.424,292.719 4.092,292.719 3.687 C 292.719 2.837,292.356 2.761,291.727 3.477 M11.613 52.350 C 11.738 52.553,12.485 52.719,13.272 52.719 C 14.059 52.719,14.806 52.553,14.931 52.350 C 15.071 52.123,14.436 51.982,13.272 51.982 C 12.108 51.982,11.472 52.123,11.613 52.350 M102.857 271.521 C 102.857 271.825,103.023 272.074,103.226 272.074 C 103.429 272.074,103.594 271.825,103.594 271.521 C 103.594 271.217,103.429 270.968,103.226 270.968 C 103.023 270.968,102.857 271.217,102.857 271.521 M53.272 273.180 C 52.963 273.679,53.380 274.286,54.031 274.286 C 54.323 274.286,54.562 273.954,54.562 273.548 C 54.562 272.785,53.673 272.531,53.272 273.180 M105.806 274.654 C 105.806 274.857,106.148 275.023,106.566 275.023 C 106.983 275.023,107.222 274.857,107.097 274.654 C 106.971 274.452,106.630 274.286,106.338 274.286 C 106.046 274.286,105.806 274.452,105.806 274.654 M125.051 289.843 C 124.449 290.445,124.495 290.876,125.161 290.876 C 125.469 290.876,125.714 290.548,125.714 290.138 C 125.714 289.279,125.646 289.248,125.051 289.843 M69.751 292.055 C 69.149 292.657,69.195 293.088,69.862 293.088 C 70.169 293.088,70.415 292.760,70.415 292.350 C 70.415 291.491,70.346 291.460,69.751 292.055 M72.258 295.853 C 72.510 296.157,72.863 296.406,73.041 296.406 C 73.218 296.406,73.364 296.157,73.364 295.853 C 73.364 295.535,73.031 295.300,72.582 295.300 C 71.928 295.300,71.875 295.391,72.258 295.853 M134.562 296.590 C 134.562 296.894,134.728 297.143,134.931 297.143 C 135.134 297.143,135.300 296.894,135.300 296.590 C 135.300 296.286,135.134 296.037,134.931 296.037 C 134.728 296.037,134.562 296.286,134.562 296.590 M75.576 298.802 C 75.576 299.109,75.904 299.355,76.313 299.355 C 76.723 299.355,77.051 299.109,77.051 298.802 C 77.051 298.495,76.723 298.249,76.313 298.249 C 75.904 298.249,75.576 298.495,75.576 298.802 M78.986 301.406 C 78.345 302.099,78.408 302.304,79.263 302.304 C 79.668 302.304,80.000 302.065,80.000 301.773 C 80.000 301.004,79.519 300.829,78.986 301.406 M143.975 302.781 C 143.817 303.144,143.791 303.545,143.918 303.672 C 144.292 304.046,144.594 303.520,144.421 302.794 C 144.269 302.150,144.249 302.149,143.975 302.781 M82.028 304.885 C 81.629 305.530,82.220 306.074,82.798 305.595 C 83.084 305.357,83.318 305.018,83.318 304.840 C 83.318 304.395,82.308 304.431,82.028 304.885 M85.604 307.908 C 85.002 308.510,85.048 308.940,85.714 308.940 C 86.022 308.940,86.267 308.612,86.267 308.203 C 86.267 307.343,86.199 307.313,85.604 307.908 M100.772 320.938 C 100.652 321.250,100.654 321.606,100.775 321.727 C 101.038 321.990,102.120 321.157,102.120 320.692 C 102.120 320.136,101.002 320.339,100.772 320.938 " stroke="none" fill="#FFFFFF" fill-rule="evenodd"></path></g></svg>