<?xml version="1.0" encoding="utf-8"?>
<!-- Generator: Adobe Illustrator 24.0.0, SVG Export Plug-In . SVG Version: 6.00 Build 0)  -->
<svg version="1.1" id="Layer_1" xmlns="http://www.w3.org/2000/svg" xmlns:xlink="http://www.w3.org/1999/xlink" x="0px" y="0px"
	 viewBox="0 0 888 200" style="enable-background:new 0 0 888 200;" xml:space="preserve">
<style type="text/css">
	.st0{fill:#FFFFFF;}
</style>
<g>
	<path class="st0" d="M814.2,0.3c-40.5,0-73.9,33.3-73.9,73.8c0,40.6,33.1,73.6,73.9,73.6c41,0,74.1-33,74.1-73.6
		C888.4,33.3,855.2,0.3,814.2,0.3z M814.2,132.6c-32.4,0-58.7-26.2-58.7-58.4c0-32.2,26.5-58.6,58.7-58.7
		c32.4,0,58.9,26.4,58.9,58.7C873.2,106.4,846.6,132.6,814.2,132.6z"/>
	<path class="st0" d="M709.6,52.4c0-28.6-23.5-52.1-52.2-52.1h-65.9c-2.1,0-4,0.9-5.4,2.4c-1.6,1.3-2.5,3.3-2.4,5.4v132
		c0,4.2,3.4,7.6,7.6,7.6c4.2,0,7.6-3.4,7.6-7.6v-35.9h53.9l37.2,41.1c1.4,1.6,3.5,2.5,5.6,2.4c1.9,0,3.7-0.7,5.1-2
		c1.6-1.4,2.5-3.5,2.5-5.6c0-1.9-0.7-3.8-2.1-5.1l-29.9-32.8C693.5,96.2,709.6,76.1,709.6,52.4z M657.5,89.1h-58.5V15.5h58.5
		c20.2,0,36.9,16.7,37,36.9C694.4,72.7,677.8,89.1,657.5,89.1z"/>
	<path class="st0" d="M502.3,0.3h-55.3c-4.2,0-7.7,3.4-7.7,7.7c0,4.2,3.4,7.7,7.7,7.7h47.6v125c0,4.2,3.4,7.7,7.7,7.7
		c4.2,0,7.7-3.4,7.7-7.7V8C510,3.8,506.6,0.3,502.3,0.3z"/>
	<path class="st0" d="M363.7,58.6h-47c-11.9,0-21.7-9.7-21.8-21.6c0-5.7,2.3-11.3,6.4-15.3c4.1-4.1,9.6-6.4,15.4-6.3h42.8
		c9.5,0,16.9,3.6,21.3,10.9c1.4,2.2,3.8,3.5,6.4,3.6c1.4,0,2.7-0.5,3.9-1.2c3.7-2.2,4.9-6.8,2.7-10.2c-6.8-11.2-18.3-17.7-32.5-18.2
		h-44.5c-9.8,0-19.2,3.8-26.2,10.7c-6.9,6.9-10.8,16.2-10.8,26c0,20.4,16.6,36.7,36.9,36.7h47c16.4,0,29.8,13.4,29.8,29.6
		c0,7.8-3.2,15.2-8.8,20.6c-5.6,5.6-13.1,8.8-21,8.7h-35.2c-16.6,0-29.6-6.6-37.2-18.9c-2.2-3.6-6.8-4.9-10.3-2.7
		c-3.7,2.2-4.9,6.8-2.7,10.2c10.3,17,28.1,26.5,50.1,26.5h35.2c11.9,0,23.4-4.7,31.8-13.1c8.5-8.3,13.2-19.7,13.2-31.6
		C408.4,78.8,388.4,58.6,363.7,58.6z"/>
	<path class="st0" d="M239.1,0.3c-4.1,0.1-7.4,3.5-7.4,7.6v132.2c0,4.1,3.3,7.5,7.4,7.6c4.1-0.1,7.4-3.5,7.4-7.6V7.9
		C246.5,3.8,243.2,0.4,239.1,0.3z"/>
	<path class="st0" d="M95.1,15.6h47.6v124.4c0,4.2,3.4,7.7,7.7,7.7c4.2,0,7.7-3.4,7.7-7.7V8c0,0,0,0,0,0c0,0,0,0,0,0
		c0-4.2-3.4-7.6-7.6-7.6H95.1c-4.2,0-7.6,3.4-7.6,7.6S90.8,15.6,95.1,15.6z"/>
	<path class="st0" d="M151.9,185.6c-0.1,0-0.1,0-0.2,0c-40.2,0.8-74.4-12.1-98.9-37.2c-26.4-27.1-39.9-66.1-37.9-110
		c0.2-4-3-7.5-7-7.7c-4-0.2-7.5,3-7.7,7c-2.2,47.9,12.8,90.9,42,120.9c26.7,27.3,63.2,41.7,105.8,41.7c1.3,0,2.6,0,3.9,0
		c4.1-0.1,7.3-3.4,7.2-7.5C159.1,188.8,155.9,185.6,151.9,185.6z"/>
</g>
</svg>
